<?xml version="1.0" standalone="no"?>
<!DOCTYPE svg PUBLIC "-//W3C//DTD SVG 20010904//EN"
 "http://www.w3.org/TR/2001/REC-SVG-20010904/DTD/svg10.dtd">
<svg version="1.0" xmlns="http://www.w3.org/2000/svg"
 width="2126.000000pt" height="2126.000000pt" viewBox="0 0 2126.000000 2126.000000"
 preserveAspectRatio="xMidYMid meet">

<g transform="translate(0.000000,2126.000000) scale(0.100000,-0.100000)"
fill="#000000" stroke="none">
<path d="M10313 21249 c-216 -8 -250 -17 -290 -78 l-23 -34 0 -2276 0 -2276
-1520 -1520 -1520 -1520 0 3294 c0 3020 -1 3296 -16 3327 -32 68 -114 105
-182 83 -43 -14 -300 -165 -482 -284 -655 -426 -1265 -969 -1777 -1582 -1768
-2115 -2309 -5037 -1419 -7661 563 -1659 1664 -3089 3134 -4071 2052 -1371
4650 -1705 6997 -901 1617 554 3023 1624 3997 3040 529 771 952 1720 1163
2614 31 130 31 164 3 206 -50 72 -58 75 -276 78 -122 2 -211 -1 -234 -7 -64
-20 -91 -63 -127 -207 -134 -539 -366 -1140 -631 -1634 -833 -1554 -2169
-2741 -3810 -3387 -650 -256 -1382 -424 -2105 -483 -359 -29 -921 -23 -1300
16 -996 101 -1999 416 -2842 893 l-93 52 0 3045 c0 1674 3 3044 8 3044 4 0
688 -681 1520 -1513 l1512 -1512 0 -949 c0 -946 0 -949 21 -983 12 -18 38 -42
60 -53 38 -20 70 -20 2328 -20 1363 0 2299 4 2314 9 30 12 241 184 364 297 69
63 95 95 104 123 15 50 5 103 -28 141 -54 65 136 60 -2308 60 l-2225 0 0 325
0 325 331 0 c310 0 334 1 363 19 57 36 86 114 66 178 -10 31 -376 403 -1904
1931 l-1891 1892 1195 1195 c657 657 1198 1195 1202 1195 5 0 8 -869 8 -1930
0 -1651 2 -1935 14 -1958 8 -15 97 -109 198 -209 154 -152 189 -182 220 -188
89 -17 167 29 187 109 8 33 11 1270 11 4585 l0 4541 148 -5 c259 -10 482 -25
667 -46 2668 -296 4988 -2058 5994 -4553 228 -565 387 -1174 466 -1781 24
-184 55 -526 55 -606 l0 -39 -3289 0 -3288 0 -33 -22 c-74 -51 -75 -55 -75
-291 0 -208 0 -213 24 -246 13 -18 42 -42 65 -52 40 -18 144 -19 3320 -19
l3279 0 -7 -102 c-3 -57 -11 -168 -18 -248 -6 -80 -8 -158 -4 -174 4 -16 24
-46 44 -67 47 -46 87 -53 309 -48 177 4 210 15 247 78 26 44 41 204 57 583 70
1656 -410 3336 -1355 4743 -307 458 -590 801 -995 1205 -395 394 -748 686
-1195 984 -1230 823 -2612 1267 -4127 1326 -277 11 -320 11 -606 -1z m-3988
-13897 c-3 -3 -58 35 -122 84 -1232 933 -2140 2231 -2587 3694 -445 1455 -431
3004 41 4445 465 1421 1346 2652 2555 3571 l113 86 3 -5938 c1 -3265 0 -5940
-3 -5942z"/>
<path d="M20275 1976 c-401 -63 -621 -341 -540 -684 21 -86 48 -136 113 -205
121 -126 257 -181 632 -252 310 -59 409 -123 410 -263 0 -69 -18 -110 -68
-153 -64 -55 -120 -71 -263 -77 -106 -4 -138 -1 -213 18 -101 25 -223 73 -335
130 -118 61 -136 56 -212 -56 -54 -80 -68 -128 -49 -163 22 -43 220 -156 349
-200 228 -78 520 -88 738 -25 272 78 416 266 416 539 0 160 -34 260 -121 356
-104 116 -223 168 -537 233 -346 72 -446 114 -493 206 -48 92 -12 179 95 232
63 31 73 33 197 36 115 3 143 0 229 -22 54 -14 147 -48 207 -77 137 -65 141
-64 233 55 105 138 96 166 -92 264 -202 106 -455 145 -696 108z"/>
<path d="M24 1946 c-19 -14 -19 -37 -22 -923 -1 -499 0 -918 3 -930 12 -49 27
-53 179 -53 133 0 144 2 162 21 18 20 19 46 24 437 l5 415 383 -414 c210 -228
396 -424 414 -436 29 -22 40 -23 219 -23 155 0 190 3 203 15 9 10 12 23 8 35
-4 11 -185 209 -402 441 -217 232 -396 427 -398 433 -1 6 162 217 362 468 201
252 368 468 372 480 13 41 -15 48 -204 48 -95 0 -182 -4 -192 -10 -10 -5 -186
-224 -391 -487 l-374 -477 -5 469 c-3 259 -7 471 -8 472 -1 1 -9 9 -18 17 -22
22 -290 23 -320 2z"/>
<path d="M3432 1944 l-22 -15 0 -925 c0 -911 0 -924 20 -944 20 -20 33 -20
668 -20 570 0 650 2 670 16 21 14 22 22 22 144 0 122 -1 130 -22 144 -20 14
-85 16 -510 16 l-488 0 0 784 0 785 -22 15 c-18 13 -52 16 -158 16 -106 0
-140 -3 -158 -16z"/>
<path d="M7232 1808 c-192 -370 -848 -1675 -857 -1706 -15 -56 3 -62 182 -62
186 0 173 -9 258 172 l60 127 460 1 460 0 67 -135 c40 -79 77 -141 91 -150 20
-13 52 -15 177 -13 144 3 153 4 167 25 14 20 -9 68 -361 765 -590 1166 -567
1123 -597 1126 -25 3 -32 -7 -107 -150z m242 -837 c69 -150 128 -282 131 -292
6 -18 -3 -19 -269 -19 -152 0 -276 2 -276 5 0 2 52 118 116 257 64 139 125
273 136 297 11 24 24 39 28 35 5 -5 65 -132 134 -283z"/>
<path d="M10104 1953 c-33 -24 -34 -47 -34 -956 l0 -904 21 -27 22 -27 486 3
c460 4 490 5 563 26 112 31 181 67 248 129 105 97 157 244 147 417 -11 209
-124 356 -313 411 l-76 22 42 7 c159 25 270 188 270 396 -1 210 -88 371 -243
444 -124 58 -132 59 -647 63 -261 2 -480 0 -486 -4z m866 -329 c69 -20 124
-73 140 -134 23 -85 -4 -205 -56 -251 -59 -51 -74 -54 -351 -57 l-263 -3 0
230 0 231 238 0 c190 0 249 -3 292 -16z m63 -787 c98 -32 154 -100 164 -202 9
-81 -17 -155 -71 -202 -72 -63 -88 -66 -403 -70 l-283 -4 0 251 0 252 273 -4
c212 -4 283 -8 320 -21z"/>
<path d="M13427 1942 c-16 -17 -17 -97 -17 -945 l0 -926 22 -15 c20 -14 102
-16 685 -16 650 0 663 0 683 20 18 18 20 33 20 140 0 107 -2 122 -20 140 -19
19 -33 20 -525 20 l-505 0 0 235 0 234 451 3 c433 3 451 4 465 22 10 15 14 52
14 141 0 105 -2 124 -18 138 -17 15 -64 17 -465 17 l-447 0 0 245 0 245 505 0
c492 0 506 1 525 20 18 18 20 33 20 140 0 107 -2 122 -20 140 -20 20 -33 20
-688 20 -635 0 -670 -1 -685 -18z"/>
<path d="M16730 1940 c-20 -20 -20 -33 -20 -940 0 -907 0 -920 20 -940 20 -20
33 -20 668 -20 570 0 650 2 670 16 21 14 22 22 22 143 0 111 -2 130 -18 144
-17 15 -67 17 -510 17 l-492 0 0 783 c0 747 -1 785 -18 800 -15 14 -42 17
-160 17 -129 0 -144 -2 -162 -20z"/>
</g>
</svg>
