<?xml version="1.0" standalone="no"?>
<!DOCTYPE svg PUBLIC "-//W3C//DTD SVG 20010904//EN"
 "http://www.w3.org/TR/2001/REC-SVG-20010904/DTD/svg10.dtd">
<svg version="1.0" xmlns="http://www.w3.org/2000/svg"
 width="3780.000000pt" height="2126.000000pt" viewBox="0 0 3780.000000 2126.000000"
 preserveAspectRatio="xMidYMid meet">

<g transform="translate(0.000000,2126.000000) scale(0.100000,-0.100000)"
fill="#000000" stroke="none">
<path d="M7183 13843 c-90 -7 -83 76 -83 -968 l0 -920 -608 -608 c-334 -334
-610 -607 -615 -607 -4 0 -7 600 -7 1333 0 1280 -1 1335 -18 1350 -29 26 -60
20 -136 -25 -287 -168 -575 -410 -794 -663 -625 -727 -894 -1676 -741 -2625
108 -678 443 -1316 940 -1795 869 -836 2124 -1118 3264 -732 1020 345 1803
1180 2080 2217 44 166 36 180 -102 180 -101 0 -115 -8 -128 -70 -16 -79 -111
-353 -162 -470 -326 -750 -969 -1344 -1741 -1611 -619 -213 -1275 -221 -1887
-22 -168 55 -335 124 -470 197 l-100 53 -3 1231 c-1 678 1 1232 5 1232 5 0
281 -273 616 -608 l607 -607 0 -388 c0 -374 1 -388 20 -407 20 -20 33 -20 953
-20 l933 0 92 76 c99 82 114 109 88 149 l-16 25 -910 0 -910 0 0 135 0 135
139 0 c114 0 143 3 155 16 44 43 58 27 -751 836 l-768 768 488 487 487 488 0
-785 0 -785 83 -83 c87 -86 118 -100 151 -66 14 14 16 197 16 1865 l0 1849 28
0 c15 0 92 -5 172 -10 590 -42 1113 -238 1598 -599 154 -114 442 -399 553
-546 308 -406 499 -842 579 -1322 18 -108 40 -298 40 -344 0 -18 -36 -19
-1333 -21 -1126 -3 -1337 -5 -1351 -17 -14 -12 -16 -30 -14 -115 3 -96 4 -101
28 -113 20 -10 303 -13 1348 -13 l1322 0 -6 -114 c-8 -139 -9 -138 128 -134
91 3 93 3 107 32 20 42 27 423 12 607 -130 1532 -1310 2756 -2829 2934 -127
15 -458 26 -549 18z m-1563 -3213 c0 -1320 -3 -2400 -6 -2400 -3 0 -43 29 -88
64 -600 472 -987 1139 -1108 1911 -19 120 -22 181 -22 425 0 244 3 305 22 425
96 613 347 1137 766 1598 103 113 401 375 429 377 4 0 7 -1080 7 -2400z"/>
<path d="M32680 11625 c-275 -46 -467 -201 -510 -412 -7 -31 -10 -102 -8 -157
3 -84 8 -111 31 -160 38 -83 89 -142 166 -191 113 -73 223 -109 446 -150 288
-52 389 -82 481 -140 90 -58 129 -130 128 -236 -1 -122 -71 -227 -192 -288
-78 -40 -159 -55 -292 -54 -199 1 -369 47 -528 144 -54 33 -89 48 -101 44 -20
-6 -79 -73 -100 -113 -17 -32 2 -59 72 -105 181 -120 359 -174 612 -183 116
-5 171 -3 244 10 236 41 393 140 471 296 101 204 65 471 -83 607 -104 94 -220
140 -497 198 -318 65 -458 116 -544 195 -59 54 -81 111 -73 189 17 190 195
305 467 304 156 -1 268 -28 408 -99 59 -30 116 -53 127 -52 23 3 105 119 105
148 0 62 -268 181 -474 209 -100 14 -261 12 -356 -4z"/>
<path d="M12210 11590 c-20 -20 -20 -33 -20 -958 0 -1088 -14 -972 119 -972
45 0 91 5 102 10 19 10 19 32 19 960 0 849 -2 950 -16 964 -12 12 -36 16 -100
16 -71 0 -87 -3 -104 -20z"/>
<path d="M13284 11597 c-19 -10 -771 -924 -811 -984 -9 -13 -12 -31 -8 -43 6
-19 764 -817 838 -882 30 -27 35 -28 148 -28 131 0 151 8 127 53 -7 13 -196
217 -420 451 l-407 427 193 237 c499 614 586 725 586 741 0 9 -5 22 -12 29
-16 16 -206 16 -234 -1z"/>
<path d="M15537 11592 c-16 -17 -17 -98 -17 -965 0 -925 0 -947 19 -957 27
-14 1265 -14 1291 0 44 24 34 171 -13 184 -12 3 -255 6 -539 6 l-518 0 0 859
0 860 -22 15 c-34 24 -179 22 -201 -2z"/>
<path d="M19502 11598 c-19 -24 -922 -1881 -922 -1898 0 -33 22 -40 121 -40
87 0 101 2 123 23 14 12 58 94 99 182 l73 160 535 2 534 3 75 -163 c41 -89 85
-172 97 -184 20 -21 32 -23 122 -23 109 0 138 12 125 53 -14 45 -916 1882
-927 1889 -18 12 -43 10 -55 -4z m251 -913 c113 -242 203 -443 200 -447 -7
-12 -843 -10 -843 2 0 8 401 867 417 893 3 5 9 5 14 0 4 -4 100 -206 212 -448z"/>
<path d="M22381 11591 c-21 -21 -21 -24 -21 -955 0 -875 1 -935 18 -955 l17
-22 480 3 c524 4 526 4 660 67 75 35 172 123 208 189 38 71 67 191 67 281 0
141 -44 255 -138 353 -53 56 -155 118 -193 118 -37 0 -26 16 22 33 31 11 69
37 102 70 92 90 135 215 123 364 -18 237 -134 385 -352 449 -51 15 -118 18
-516 21 -451 4 -457 4 -477 -16z m911 -205 c59 -22 132 -86 160 -140 31 -58
37 -203 13 -281 -23 -73 -87 -144 -157 -176 -52 -23 -60 -24 -375 -27 l-323
-3 0 326 0 326 318 -3 c272 -4 324 -7 364 -22z m-1 -850 c121 -26 202 -85 250
-184 20 -40 24 -62 24 -147 0 -89 -3 -105 -27 -151 -35 -66 -114 -137 -186
-166 -55 -22 -69 -23 -399 -26 l-343 -3 0 346 0 345 308 0 c225 0 325 -4 373
-14z"/>
<path d="M25786 11594 c-14 -14 -16 -115 -16 -963 0 -723 3 -950 12 -959 17
-17 1329 -17 1346 0 7 7 12 44 12 95 0 80 -1 84 -26 93 -15 6 -237 10 -560 10
l-534 0 0 325 0 325 483 0 c362 0 486 3 495 12 7 7 12 44 12 95 0 71 -3 84
-19 93 -13 6 -187 10 -495 10 l-476 0 0 340 0 340 544 0 c299 0 551 3 560 6
13 5 16 23 16 88 0 50 -5 87 -12 94 -9 9 -171 12 -669 12 -584 0 -659 -2 -673
-16z"/>
<path d="M29100 11590 c-20 -20 -20 -33 -20 -953 0 -828 2 -935 16 -955 l15
-22 638 0 c734 0 671 -9 671 98 0 110 46 102 -570 102 l-530 0 0 859 c0 768
-2 861 -16 875 -12 12 -36 16 -100 16 -71 0 -87 -3 -104 -20z"/>
</g>
</svg>
