<?xml version="1.0" standalone="no"?>
<!DOCTYPE svg PUBLIC "-//W3C//DTD SVG 20010904//EN"
 "http://www.w3.org/TR/2001/REC-SVG-20010904/DTD/svg10.dtd">
<svg version="1.0" xmlns="http://www.w3.org/2000/svg"
 width="735.000000pt" height="234.000000pt" viewBox="0 0 735.000000 234.000000"
 preserveAspectRatio="xMidYMid meet">

<g transform="translate(0.000000,234.000000) scale(0.100000,-0.100000)"
fill="#000000" stroke="none">
<path d="M878 2204 c-5 -4 -8 -108 -8 -230 l0 -223 -147 -147 -148 -147 -3
322 c-2 260 -5 321 -16 321 -38 0 -203 -145 -264 -233 -119 -171 -162 -428
-107 -632 37 -135 132 -286 241 -383 66 -59 219 -136 323 -163 100 -26 262
-26 362 0 169 43 337 152 430 277 79 107 153 284 129 308 -17 17 -43 -6 -57
-52 -27 -94 -96 -205 -178 -287 -73 -74 -186 -155 -214 -155 -6 0 -39 -9 -72
-20 -94 -32 -206 -44 -298 -31 -82 11 -193 41 -249 68 l-32 16 0 300 0 300
148 -144 147 -144 5 -100 5 -100 224 -3 c219 -2 225 -2 248 20 12 12 23 25 23
30 0 4 -99 8 -220 8 l-220 0 0 35 c0 33 2 35 35 35 19 0 35 4 35 8 0 5 -81 89
-180 188 -99 98 -180 183 -180 189 0 10 214 225 224 225 3 0 6 -82 6 -183 0
-179 1 -184 23 -205 13 -12 27 -19 30 -15 4 3 7 206 7 451 l0 445 66 -7 c92
-9 214 -50 297 -99 105 -63 214 -175 264 -272 47 -91 83 -209 83 -272 l0 -43
-322 -2 c-315 -3 -323 -3 -323 -23 0 -20 8 -20 322 -23 l322 -2 3 -33 c2 -27
7 -32 28 -32 24 0 25 2 28 80 6 146 -55 338 -145 463 -17 23 -68 76 -114 117
-94 85 -222 155 -329 179 -80 19 -222 31 -232 20z m-358 -775 c0 -422 -3 -569
-11 -569 -7 0 -46 35 -88 78 -136 137 -203 302 -203 497 -1 142 39 278 115
395 35 53 166 182 179 174 4 -3 8 -261 8 -575z"/>
<path d="M6985 1663 c-58 -15 -101 -80 -91 -138 10 -52 52 -80 158 -104 106
-25 138 -47 138 -97 0 -79 -110 -109 -217 -59 -51 23 -53 23 -63 5 -8 -15 -5
-22 18 -39 60 -43 180 -53 246 -20 45 22 71 64 71 114 0 62 -28 96 -98 118
-31 9 -83 25 -114 35 -37 11 -63 26 -76 44 -19 26 -19 28 -3 53 37 56 119 67
201 28 32 -15 37 -15 45 -3 16 24 12 30 -32 50 -41 19 -134 25 -183 13z"/>
<path d="M2100 1430 l0 -230 25 0 25 0 0 230 0 230 -25 0 -25 0 0 -230z"/>
<path d="M2313 1613 c-21 -27 -43 -52 -49 -58 -26 -22 -105 -127 -102 -134 2
-5 48 -56 104 -115 80 -84 107 -106 128 -106 15 0 26 4 24 10 -1 5 -45 54 -95
109 -51 55 -93 103 -93 107 0 10 70 101 119 154 23 25 46 53 52 63 8 14 5 17
-20 17 -23 0 -38 -10 -68 -47z"/>
<path d="M2892 1433 l3 -228 158 -3 c152 -2 157 -2 157 18 0 19 -6 20 -130 20
l-130 0 0 210 0 210 -30 0 -30 0 2 -227z"/>
<path d="M3823 1613 c-12 -27 -60 -127 -107 -223 -47 -96 -86 -178 -86 -182 0
-5 13 -8 29 -8 24 0 31 6 45 45 l18 45 132 0 132 0 22 -45 c17 -36 27 -45 48
-45 22 0 24 3 18 23 -15 49 -210 437 -220 437 -5 0 -20 -21 -31 -47z m73 -130
c20 -43 42 -93 50 -110 l14 -33 -105 0 -104 0 18 43 c50 114 81 177 86 177 3
0 22 -35 41 -77z"/>
<path d="M4540 1430 l0 -230 115 0 c163 0 213 25 222 112 6 56 -9 95 -46 116
l-29 16 29 34 c44 50 38 122 -15 164 -17 15 -43 18 -148 18 l-128 0 0 -230z
m245 165 c32 -31 32 -66 1 -102 -23 -27 -29 -28 -108 -28 l-83 0 -3 78 -3 77
86 0 c78 0 88 -2 110 -25z m8 -195 c30 -24 42 -66 27 -104 -15 -39 -66 -57
-153 -54 l-72 3 -3 88 -3 87 89 0 c74 0 94 -3 115 -20z"/>
<path d="M5360 1430 l0 -230 160 0 160 0 0 25 0 25 -135 0 -135 0 0 80 0 80
120 0 120 0 0 25 0 25 -120 0 -120 0 0 80 0 80 135 0 c128 0 135 1 135 20 0
19 -7 20 -160 20 l-160 0 0 -230z"/>
<path d="M6150 1430 l0 -230 160 0 c153 0 160 1 160 20 0 19 -7 20 -130 20
l-130 0 0 210 0 210 -30 0 -30 0 0 -230z"/>
<path d="M770 330 c0 -183 1 -190 20 -190 17 0 20 7 20 47 0 29 6 53 16 65 16
17 19 15 62 -47 34 -50 50 -65 69 -65 22 0 20 4 -32 76 l-57 76 29 32 c16 17
37 41 47 54 19 22 19 22 -2 22 -14 0 -38 -21 -69 -59 -26 -33 -51 -60 -55 -60
-5 -1 -8 53 -8 119 0 113 -1 120 -20 120 -19 0 -20 -7 -20 -190z"/>
<path d="M3080 330 c0 -183 1 -190 20 -190 19 0 20 7 20 190 0 183 -1 190 -20
190 -19 0 -20 -7 -20 -190z"/>
<path d="M3460 330 c0 -183 1 -190 20 -190 15 0 20 7 20 28 1 22 2 24 10 10
17 -28 73 -41 112 -25 42 18 58 37 69 84 26 114 -75 198 -161 135 l-30 -23 0
86 c0 78 -2 85 -20 85 -19 0 -20 -7 -20 -190z m166 16 c24 -20 28 -31 28 -76
0 -45 -4 -56 -28 -76 -66 -58 -140 3 -122 101 7 36 46 75 77 75 10 0 30 -11
45 -24z"/>
<path d="M4020 330 c0 -183 1 -190 20 -190 19 0 20 7 20 190 0 183 -1 190 -20
190 -19 0 -20 -7 -20 -190z"/>
<path d="M114 489 c-42 -12 -68 -44 -68 -84 0 -42 18 -63 74 -88 64 -28 80
-45 80 -84 0 -30 -5 -36 -35 -49 -28 -11 -44 -12 -73 -4 -48 13 -52 13 -52 -5
0 -8 12 -17 28 -21 15 -3 33 -8 41 -10 23 -7 90 16 111 38 27 29 27 91 -1 119
-11 11 -40 29 -64 39 -55 24 -81 60 -65 90 16 29 55 42 95 31 29 -8 34 -6 38
10 4 14 0 19 -16 19 -12 0 -31 2 -42 4 -11 3 -34 1 -51 -5z"/>
<path d="M1163 493 l-33 -4 0 -169 0 -168 35 -6 c75 -14 157 16 174 65 13 38
-7 94 -38 104 -26 8 -27 17 -1 33 47 29 43 108 -6 131 -31 14 -89 20 -131 14z
m112 -48 c14 -13 25 -31 25 -40 0 -31 -46 -65 -90 -65 l-40 0 0 58 c0 32 3 62
7 65 16 17 75 6 98 -18z m10 -160 c28 -27 29 -33 16 -68 -11 -28 -57 -50 -97
-45 -28 3 -29 4 -32 71 l-3 67 46 0 c35 0 52 -6 70 -25z"/>
<path d="M2790 320 c0 -173 1 -180 20 -180 18 0 20 7 20 68 1 52 5 72 21 91
13 15 23 21 27 14 88 -136 117 -173 133 -173 11 0 19 2 19 5 0 3 -26 45 -58
93 -32 48 -61 92 -65 99 -4 6 19 42 53 83 33 39 60 74 60 76 0 2 -9 4 -20 4
-12 0 -43 -30 -86 -82 -36 -46 -70 -84 -75 -86 -5 -2 -9 35 -9 82 0 79 -2 86
-20 86 -19 0 -20 -7 -20 -180z"/>
<path d="M338 462 c-12 -2 -18 -13 -18 -33 0 -22 -5 -29 -20 -29 -11 0 -20 -7
-20 -15 0 -8 9 -15 20 -15 18 0 20 -7 20 -79 0 -44 4 -91 10 -106 10 -27 50
-48 75 -39 19 8 20 24 1 24 -34 0 -46 29 -46 116 l0 84 35 0 c24 0 35 5 35 15
0 10 -10 15 -34 15 -32 0 -35 3 -38 33 -2 25 -7 32 -20 29z"/>
<path d="M553 393 c-58 -11 -102 -97 -83 -162 13 -45 36 -69 78 -80 101 -28
183 63 149 166 -19 56 -81 89 -144 76z m74 -38 c35 -25 48 -83 29 -128 -30
-73 -105 -75 -140 -3 -16 32 -17 44 -7 77 12 41 43 69 76 69 11 0 30 -7 42
-15z"/>
<path d="M1443 389 c-22 -6 -30 -14 -27 -24 5 -11 11 -12 24 -5 30 16 68 12
90 -10 32 -32 25 -47 -28 -54 -26 -3 -58 -13 -70 -22 -52 -36 -48 -101 7 -124
27 -11 36 -10 70 7 38 19 40 19 44 1 3 -10 12 -18 21 -18 13 0 16 13 16 78 0
110 -13 150 -55 168 -39 16 -47 16 -92 3z m107 -149 c0 -55 -68 -91 -104 -54
-36 36 1 84 64 84 38 0 40 -2 40 -30z"/>
<path d="M1670 270 c0 -121 1 -130 19 -130 17 0 19 9 23 89 3 94 20 131 60
131 11 0 18 7 18 19 0 26 -34 17 -60 -17 l-20 -25 0 32 c0 24 -4 31 -20 31
-19 0 -20 -7 -20 -130z"/>
<path d="M1873 389 c-22 -6 -30 -14 -27 -24 5 -11 11 -12 24 -5 30 16 68 12
90 -10 32 -32 25 -47 -28 -54 -26 -3 -58 -13 -70 -22 -52 -36 -48 -101 7 -124
27 -11 36 -10 70 7 38 19 40 19 44 1 3 -10 12 -18 21 -18 13 0 16 13 16 78 0
110 -13 150 -55 168 -39 16 -47 16 -92 3z m107 -149 c0 -55 -68 -91 -104 -54
-36 36 1 84 64 84 38 0 40 -2 40 -30z"/>
<path d="M2090 270 c0 -123 1 -130 20 -130 18 0 20 7 20 80 0 89 11 123 46
139 28 13 68 0 78 -24 3 -9 6 -57 6 -106 0 -82 1 -89 20 -89 19 0 20 7 20 99
0 90 -2 103 -23 126 -30 35 -88 37 -123 4 l-24 -22 0 26 c0 20 -5 27 -20 27
-19 0 -20 -7 -20 -130z"/>
<path d="M2433 385 c-74 -32 -91 -156 -29 -215 31 -29 97 -31 126 -5 20 18 20
17 20 -18 0 -27 -7 -41 -27 -57 -24 -19 -36 -21 -81 -16 -41 5 -53 3 -50 -6 7
-19 75 -30 118 -18 68 18 74 33 80 201 5 137 4 149 -12 149 -11 0 -18 -8 -18
-20 0 -11 -4 -20 -10 -20 -5 0 -10 4 -10 9 0 8 -53 32 -69 31 -3 -1 -20 -7
-38 -15z m95 -35 c31 -30 32 -124 0 -157 -63 -67 -153 28 -114 120 24 58 74
74 114 37z"/>
<path d="M3233 389 c-22 -6 -30 -14 -27 -24 5 -11 11 -12 24 -5 30 16 68 12
90 -10 32 -32 25 -47 -28 -54 -26 -3 -58 -13 -70 -22 -52 -36 -48 -101 7 -124
27 -11 36 -10 70 7 38 19 40 19 44 1 3 -10 12 -18 21 -18 13 0 16 13 16 78 0
110 -13 150 -55 168 -39 16 -47 16 -92 3z m107 -149 c0 -55 -68 -91 -104 -54
-36 36 1 84 64 84 38 0 40 -2 40 -30z"/>
<path d="M3820 387 c-44 -15 -73 -65 -73 -124 0 -55 27 -94 77 -110 44 -15
116 -7 116 13 0 10 -12 12 -49 7 -46 -5 -52 -3 -80 25 -53 53 -44 62 60 62
l92 0 -6 42 c-10 71 -68 108 -137 85z m82 -34 c10 -9 18 -27 18 -40 0 -22 -3
-23 -70 -23 -38 0 -70 2 -70 5 0 14 31 64 42 68 27 11 62 6 80 -10z"/>
<path d="M4183 390 c-33 -13 -55 -53 -45 -79 4 -13 30 -35 58 -49 82 -45 64
-102 -28 -88 -48 8 -49 -14 -2 -26 42 -11 84 3 108 35 19 26 19 30 5 55 -8 15
-36 37 -62 49 -33 16 -47 29 -47 43 0 25 35 43 71 36 22 -4 29 -2 29 9 0 8 -6
15 -12 15 -7 0 -22 2 -33 5 -11 2 -30 0 -42 -5z"/>
<path d="M4536 390 c-87 -27 -120 -144 -60 -211 22 -25 83 -41 123 -33 44 9
42 34 -2 27 -76 -12 -132 57 -107 132 14 43 59 69 106 62 23 -4 34 -1 38 9 3
9 -1 14 -12 14 -9 0 -26 2 -37 5 -11 2 -33 0 -49 -5z"/>
<path d="M4763 393 c-58 -11 -102 -97 -83 -162 13 -45 36 -69 78 -80 101 -28
183 63 149 166 -19 56 -81 89 -144 76z m74 -38 c35 -25 48 -83 29 -128 -30
-73 -105 -75 -140 -3 -16 32 -17 44 -7 77 19 62 72 86 118 54z"/>
<path d="M4343 184 c-3 -8 2 -23 11 -32 16 -16 18 -16 31 1 7 11 11 25 8 33
-7 19 -42 18 -50 -2z"/>
</g>
</svg>
